<?xml version="1.0" encoding="UTF-8" standalone="no"?>
<!-- Generator: Adobe Illustrator 27.6.1, SVG Export Plug-In . SVG Version: 6.00 Build 0)  -->

<svg
   version="1.1"
   id="svg8"
   x="0px"
   y="0px"
   viewBox="0 0 595.3 841.9"
   style="enable-background:new 0 0 595.3 841.9;"
   xml:space="preserve"
   sodipodi:docname="PxN_full_logo_White.svg"
   inkscape:version="1.3.2 (091e20e, 2023-11-25, custom)"
   inkscape:export-filename="I:\Shared drives\Pixel-Nexus\Internal (PxN)\HouseStyle\logo\Vectorbestanden\logo_white_no_text.png"
   inkscape:export-xdpi="65.928162"
   inkscape:export-ydpi="65.928162"
   xmlns:inkscape="http://www.inkscape.org/namespaces/inkscape"
   xmlns:sodipodi="http://sodipodi.sourceforge.net/DTD/sodipodi-0.dtd"
   xmlns="http://www.w3.org/2000/svg"
   xmlns:svg="http://www.w3.org/2000/svg">
<style
   type="text/css"
   id="style2">
	.st0{display:none;}
	.st1{display:inline;fill:#80B3FF;}
	.st2{display:inline;}
	.st3{fill:#00112B;}
	.st4{fill:#D5E5FF;}
	.st5{fill:#AACCFF;}
	.st6{fill:#80B3FF;}
	.st7{fill:#87AADE;}
	.st8{fill:#AFC6E9;}
	.st9{fill:#D7E3F4;}
	.st10{font-family:'Follana-Regular';}
	.st11{font-size:80.5833px;}
	.st12{font-size:79.2609px;}
	.st13{display:inline;fill:#00112B;}
	.st14{font-size:29.9207px;}
	.st15{font-size:29.4296px;}
	.st16{display:inline;fill:#FFFFFF;}
	.st17{fill:#FFFFFF;}
	.st18{font-size:100.1033px;}
	.st19{enable-background:new    ;}
	.st20{font-size:133.4711px;}
	.st21{font-family:'Roboto-Regular';}
</style>
<defs
   id="defs5">
	
		<inkscape:perspective
   id="perspective3754"
   inkscape:persp3d-origin="105 : 99 : 1"
   inkscape:vp_x="0 : 148.5 : 1"
   inkscape:vp_y="0 : 1000 : 0"
   inkscape:vp_z="210 : 148.5 : 1"
   sodipodi:type="inkscape:persp3d">
		</inkscape:perspective>
</defs>
<sodipodi:namedview
   bordercolor="#666666"
   borderopacity="1.0"
   id="base"
   inkscape:current-layer="g104925"
   inkscape:cx="163.54555"
   inkscape:cy="400.40462"
   inkscape:document-units="mm"
   inkscape:guide-bbox="true"
   inkscape:object-nodes="true"
   inkscape:pagecheckerboard="0"
   inkscape:pageopacity="0.0"
   inkscape:pageshadow="2"
   inkscape:window-height="1369"
   inkscape:window-maximized="1"
   inkscape:window-width="2560"
   inkscape:window-x="-8"
   inkscape:window-y="-8"
   inkscape:zoom="1.1525841"
   pagecolor="#ffffff"
   showgrid="false"
   showguides="true"
   inkscape:showpageshadow="2"
   inkscape:deskcolor="#d1d1d1">
	<inkscape:grid
   id="grid4021"
   type="xygrid"
   originx="0"
   originy="0"
   spacingy="1"
   spacingx="1"
   units="mm"
   visible="false" />
</sodipodi:namedview>


<g
   id="g103974"
   inkscape:groupmode="layer"
   inkscape:label="Text path white"
   style="display:inline">
	
	
	<g
   aria-label="Pixel-Nexus"
   transform="matrix(1.535868,0,0,1.535868,-15.879266,-548.0959)"
   id="g103970"
   style="font-family:Follana;-inkscape-font-specification:Follana;white-space:pre;inline-size:578.853;enable-background:new;stroke:none"
   class="st19"><path
     d="m 30.252475,798.73809 q 0,1.00103 -0.700723,1.70176 -0.600619,0.60062 -1.601653,0.60062 h -7.407644 q -0.90093,0 -1.601653,-0.60062 -0.60062,-0.70073 -0.60062,-1.70176 v -53.85558 q 0,-3.80392 1.80186,-7.00723 1.901963,-3.2033 5.105268,-5.00516 3.203306,-1.90197 7.007231,-1.90197 h 3.503616 q 3.803926,0 7.007231,1.90197 3.203306,1.80186 5.005165,5.00516 1.901963,3.20331 1.901963,7.00723 v 22.82356 q 0,3.80392 -1.901963,7.00723 -1.801859,3.2033 -5.005165,5.10527 -3.203305,1.90196 -7.007231,1.90196 h -4.204339 q -0.500516,0 -0.900929,0.40041 -0.400414,0.30031 -0.400414,0.90093 z m 7.407645,-53.15485 q 0,-1.40145 -1.001033,-2.30238 -0.90093,-1.00103 -2.302376,-1.00103 h -0.800827 q -1.301343,0 -2.302376,1.00103 -1.001033,0.90093 -1.001033,2.30238 v 23.42417 q 0,0.50052 0.400414,0.90093 0.400413,0.40041 0.900929,0.40041 h 2.802893 q 1.401446,0 2.302376,-0.90093 1.001033,-1.00103 1.001033,-2.30237 z"
     style="font-size:100.103px;fill:#ffffff;stroke:none"
     id="path103948" /><path
     d="m 68.110879,801.04047 h -6.744795 v -39.44794 h 6.744795 z m -7.29167,-49.91149 q 0,-1.64062 0.984375,-2.77083 1.020834,-1.13021 2.989585,-1.13021 1.968751,0 2.989585,1.13021 1.020833,1.13021 1.020833,2.77083 0,1.64063 -1.020833,2.73438 -1.020834,1.09375 -2.989585,1.09375 -1.968751,0 -2.989585,-1.09375 -0.984375,-1.09375 -0.984375,-2.73438 z"
     style="font-size:74.6667px;fill:#ffffff;stroke:none"
     id="path103950" /><path
     d="m 92.136932,775.99358 8.750008,-14.40105 h 7.875 l -12.906256,19.50522 13.307296,19.94272 h -7.80209 L 92.246307,786.27483 83.13172,801.04047 H 75.293174 L 88.600472,781.09775 75.694216,761.59253 h 7.802087 z"
     style="font-size:74.6667px;fill:#ffffff;stroke:none"
     id="path103952" /><path
     d="m 131.54841,801.76963 q -8.02084,0 -13.05209,-5.25 -5.03125,-5.28646 -5.03125,-14.10938 v -1.23958 q 0,-5.8698 2.22396,-10.46355 2.26041,-4.63021 6.27083,-7.21875 4.04688,-2.62501 8.75001,-2.62501 7.69271,0 11.95834,5.06771 4.26562,5.06772 4.26562,14.51043 v 2.80729 h -26.72397 q 0.14583,5.83334 3.39063,9.44271 3.28125,3.57292 8.3125,3.57292 3.57292,0 6.05209,-1.45833 2.47917,-1.45834 4.33854,-3.86459 l 4.1198,3.20834 q -4.95834,7.61979 -14.87501,7.61979 z m -0.83854,-35.3646 q -4.08334,0 -6.85417,2.98959 -2.77084,2.95312 -3.42709,8.3125 h 19.76043 v -0.51042 q -0.29167,-5.14062 -2.77084,-7.94792 -2.47916,-2.84375 -6.70833,-2.84375 z"
     style="font-size:74.6667px;fill:#ffffff;stroke:none"
     id="path103954" /><path
     d="m 162.06404,801.04047 h -6.74479 v -56.00003 h 6.74479 z"
     style="font-size:74.6667px;fill:#ffffff;stroke:none"
     id="path103956" /><path
     d="m 193.4128,774.49941 h -23.85274 v -7.38067 h 23.85274 z"
     style="font-family:Roboto;-inkscape-font-specification:Roboto;fill:#ffffff;stroke:none"
     id="path103958" /><path
     d="m 218.79212,730.96815 q 3.80393,0 7.00723,1.90197 3.20331,1.80186 5.00517,5.00516 1.90196,3.20331 1.90196,7.00723 v 53.85558 q 0,1.00103 -0.70072,1.70176 -0.70072,0.60062 -1.60165,0.60062 h -7.40765 q -1.00103,0 -1.70175,-0.60062 -0.60062,-0.70073 -0.60062,-1.70176 v -53.15485 q 0,-1.40145 -1.00104,-2.30238 -0.90093,-1.00103 -2.30237,-1.00103 h -0.80083 q -1.40145,0 -2.40248,1.00103 -0.90093,0.90093 -0.90093,2.30238 v 53.15485 q 0,1.00103 -0.70072,1.70176 -0.60062,0.60062 -1.60165,0.60062 h -7.30755 q -1.00103,0 -1.70175,-0.60062 -0.60062,-0.70073 -0.60062,-1.70176 v -53.85558 q 0,-3.80392 1.80186,-7.00723 1.90196,-3.2033 5.10527,-5.00516 3.2033,-1.90197 7.00723,-1.90197 z"
     style="font-size:100.103px;fill:#ffffff;stroke:none"
     id="path103960" /><path
     d="m 260.18651,801.76963 q -8.02084,0 -13.05209,-5.25 -5.03125,-5.28646 -5.03125,-14.10938 v -1.23958 q 0,-5.8698 2.22396,-10.46355 2.26041,-4.63021 6.27083,-7.21875 4.04688,-2.62501 8.75001,-2.62501 7.69271,0 11.95834,5.06771 4.26562,5.06772 4.26562,14.51043 v 2.80729 h -26.72397 q 0.14583,5.83334 3.39063,9.44271 3.28125,3.57292 8.3125,3.57292 3.57292,0 6.05209,-1.45833 2.47917,-1.45834 4.33854,-3.86459 l 4.1198,3.20834 q -4.95834,7.61979 -14.87501,7.61979 z m -0.83854,-35.3646 q -4.08334,0 -6.85417,2.98959 -2.77084,2.95312 -3.42709,8.3125 h 19.76043 v -0.51042 q -0.29167,-5.14062 -2.77084,-7.94792 -2.47917,-2.84375 -6.70833,-2.84375 z"
     style="font-size:74.6667px;font-family:Roboto;-inkscape-font-specification:Roboto;fill:#ffffff;stroke:none"
     id="path103962" /><path
     d="m 296.60839,775.99358 8.75,-14.40105 h 7.875 l -12.90625,19.50522 13.3073,19.94272 h -7.80209 l -9.11459,-14.76564 -9.11459,14.76564 h -7.83854 l 13.3073,-19.94272 -12.90626,-19.50522 h 7.80209 z"
     style="font-size:74.6667px;font-family:Roboto;-inkscape-font-specification:Roboto;fill:#ffffff;stroke:none"
     id="path103964" /><path
     d="m 344.73343,797.13942 q -3.9375,4.63021 -11.55729,4.63021 -6.3073,0 -9.62501,-3.64583 -3.28125,-3.6823 -3.31771,-10.86459 v -25.66668 h 6.7448 v 25.48439 q 0,8.96875 7.29167,8.96875 7.72917,0 10.28125,-5.76042 v -28.69272 h 6.7448 v 39.44794 h -6.41667 z"
     style="font-size:74.6667px;font-family:Roboto;-inkscape-font-specification:Roboto;fill:#ffffff;stroke:none"
     id="path103966" /><path
     d="m 384.50948,790.57692 q 0,-2.73438 -2.07812,-4.22917 -2.04167,-1.53125 -7.1823,-2.625 -5.10417,-1.09375 -8.13021,-2.625 -2.98958,-1.53125 -4.44792,-3.64584 -1.42187,-2.11458 -1.42187,-5.03125 0,-4.84896 4.08333,-8.20313 4.1198,-3.35417 10.50001,-3.35417 6.70833,0 10.86459,3.46355 4.19271,3.46354 4.19271,8.85938 h -6.78126 q 0,-2.77084 -2.36979,-4.77605 -2.33334,-2.00521 -5.90625,-2.00521 -3.6823,0 -5.76042,1.60417 -2.07813,1.60417 -2.07813,4.19271 0,2.44271 1.93229,3.68229 1.9323,1.23959 6.96355,2.3698 5.06771,1.13021 8.20313,2.69792 3.13542,1.5677 4.63021,3.79166 1.53125,2.1875 1.53125,5.35938 0,5.28646 -4.22917,8.4948 -4.22917,3.17187 -10.97396,3.17187 -4.73959,0 -8.38542,-1.67708 -3.64584,-1.67708 -5.72397,-4.66667 -2.04166,-3.02604 -2.04166,-6.52604 h 6.74479 q 0.18229,3.39062 2.69792,5.39583 2.55208,1.96875 6.70834,1.96875 3.82812,0 6.125,-1.53125 2.33333,-1.56771 2.33333,-4.15625 z"
     style="font-size:74.6667px;font-family:Roboto;-inkscape-font-specification:Roboto;fill:#ffffff;stroke:none"
     id="path103968" /></g>
	
		
</g><g
   id="g104925"
   inkscape:groupmode="layer"
   inkscape:label="Logo white"
   style="display:inline;mix-blend-mode:normal">
	<path
   id="path104923"
   inkscape:connector-curvature="0"
   inkscape:export-xdpi="65.928162"
   inkscape:export-ydpi="65.928162"
   d="M 70.9,128.1 V 566 H 509.5 V 128.1 Z M 85,143.2 H 495.3 V 550.9 H 85 Z"
   style="display:inline;fill:#ffffff;stroke-width:1.0015748;stroke-dasharray:none;stroke:none" />
<path
   style="display:inline;fill:#ffffff;stroke-width:0.867616;stroke:none"
   d="m 372.90621,507.19633 -2.43433,-2.09406 v -106.141 c 0,-119.18233 -0.47036,-110.24629 6.55785,-124.58644 4.52772,-9.23823 10.7871,-15.75396 18.76348,-19.53191 5.75411,-2.7254 6.22725,-2.80057 17.62565,-2.80057 10.89102,0 12.06088,0.16313 16.67389,2.32525 4.66016,2.18422 9.03743,5.64267 12.81996,9.99655 4.34548,5.00187 7.90603,11.18555 10.20884,17.97671 l 2.37666,7.00896 0.23649,107.65343 0.23649,107.65342 -2.1472,2.31686 c -2.10623,2.27266 -2.35407,2.31685 -12.99299,2.31685 -11.6835,0 -14.52226,-0.71524 -16.03747,-4.04076 -0.68828,-1.51063 -0.96329,-30.8425 -0.96329,-102.74465 0,-83.55586 -0.20298,-101.11626 -1.19628,-103.49357 -1.78906,-4.28181 -5.26669,-6.62493 -9.83266,-6.62493 -4.67847,0 -8.24834,3.05631 -9.7072,8.31072 -0.65586,2.36223 -0.94605,34.10986 -0.94941,103.86804 l -0.005,100.46595 -2.1296,2.1296 c -2.04246,2.04247 -2.59074,2.1296 -13.39966,2.1296 -10.66297,0 -11.40119,-0.11279 -13.70438,-2.09405 z"
   id="path105079"
   sodipodi:nodetypes="ccssssssscccsssssssccsscc" /><path
   style="display:inline;fill:#ffffff;stroke-width:0.867616;stroke:none"
   d="m 245.1579,507.44963 c 0.54182,-1.01242 8.75453,-14.68492 18.25045,-30.38334 9.49592,-15.69842 17.26531,-28.94329 17.26531,-29.43304 0,-0.48976 -7.80854,-13.92445 -17.35231,-29.85487 -9.54377,-15.93043 -17.35231,-29.1995 -17.35231,-29.48683 0,-0.28733 4.58337,-0.41243 10.18527,-0.27799 l 10.18527,0.24444 11.72202,21.88124 c 6.44712,12.03468 11.95189,21.89296 12.23284,21.9073 0.28095,0.0143 5.94214,-9.92206 12.58043,-22.08086 l 12.06961,-22.10692 10.19448,-0.0173 c 5.60697,-0.01 10.19449,0.19923 10.19449,0.46386 0,0.26463 -7.80854,13.53717 -17.35232,29.49453 -9.54377,15.95735 -17.35231,29.39447 -17.35231,29.86025 0,0.46578 7.7426,13.64467 17.20579,29.28643 9.46318,15.64177 17.67588,29.31803 18.25045,30.3917 l 1.04467,1.95213 H 326.89436 316.659 L 304.69458,487.7042 c -6.58042,-11.8724 -12.46917,-22.27648 -13.0861,-23.12018 -0.99009,-1.35402 -2.62569,1.17856 -13.94092,21.58619 l -12.81924,23.12017 h -10.33778 c -10.26648,0 -10.33099,-0.0127 -9.35264,-1.84075 z"
   id="path105118" /><path
   style="display:inline;fill:#ffffff;stroke-width:0.867616;stroke:none"
   d="m 128.40712,508.24246 c -3.99726,-2.29242 -3.84761,1.90695 -3.87668,-108.78357 -0.0267,-101.83292 0.0251,-105.26543 1.68633,-111.761 2.45627,-9.6039 6.38306,-16.47655 13.44298,-23.52784 6.54827,-6.54026 12.53856,-9.97126 20.24114,-11.59331 5.88697,-1.23971 19.57377,-1.24633 25.50925,-0.0123 15.9096,3.30761 29.58734,17.7078 34.32735,36.14052 1.34305,5.22274 1.5045,11.25083 1.5045,56.1723 0,46.14211 -0.13195,50.79011 -1.58863,55.96121 -3.63232,12.89436 -10.87177,23.59969 -20.33017,30.06318 -7.34585,5.01985 -12.4455,6.41549 -25.5803,7.00069 -6.6247,0.29515 -11.38806,0.88893 -11.87929,1.48082 -0.47008,0.56642 -0.94047,14.49092 -1.10222,32.62794 -0.1552,17.4019 -0.61563,32.33751 -1.02318,33.19024 -1.56811,3.28098 -5.07896,4.09034 -17.62305,4.0627 -7.36949,-0.0162 -12.63997,-0.409 -13.70803,-1.02154 z m 51.65304,-113.91115 c 4.25222,-3.79399 4.30817,-4.44259 4.30817,-49.94581 0,-38.02138 -0.15654,-42.9567 -1.44889,-45.68012 -2.17176,-4.57663 -5.79496,-6.48956 -11.49139,-6.06707 -4.05467,0.30073 -5.08323,0.76888 -7.5119,3.41901 -3.86029,4.21231 -3.99384,6.24168 -3.67527,55.84511 0.22402,34.87965 0.47437,41.97836 1.52507,43.24376 1.88852,2.27443 15.51189,1.6676 18.29421,-0.81488 z"
   id="path105157" /></g>











<sodipodi:namedview
   bordercolor="#666666"
   borderopacity="1.0"
   id="namedview1911"
   inkscape:current-layer="layer1"
   inkscape:cx="280.94208"
   inkscape:cy="593.13708"
   inkscape:document-units="mm"
   inkscape:pageopacity="0.0"
   inkscape:pageshadow="2"
   inkscape:window-height="837"
   inkscape:window-maximized="1"
   inkscape:window-width="1600"
   inkscape:window-x="-8"
   inkscape:window-y="-8"
   inkscape:zoom="1"
   pagecolor="#ffffff"
   showgrid="false">
	</sodipodi:namedview>




</svg>
